<svg width="100" height="100" viewBox="0 0 100 100" fill="none" xmlns="http://www.w3.org/2000/svg">
<rect x="0.5" y="0.5" width="99" height="99" rx="3.5" fill="white"/>
<path fill-rule="evenodd" clip-rule="evenodd" d="M41.4487 24.0364L53.7346 36.2576C55.7931 38.3058 55.7931 41.624 53.7346 43.6723C51.6761 45.7205 48.3374 45.7205 46.2789 43.6723L33.9931 31.4511C31.9346 29.4029 31.9346 26.0847 33.9931 24.0364C36.0516 21.9882 39.3902 21.9882 41.4487 24.0364Z" fill="#58E3D0"/>
<path fill-rule="evenodd" clip-rule="evenodd" d="M53.7217 43.6723L66.0076 31.4511C68.0661 29.4029 68.0661 26.0847 66.0076 24.0364C63.9492 21.9882 60.6105 21.9882 58.552 24.0364L46.266 36.2576C44.2075 38.3058 44.2075 41.624 46.266 43.6723C48.3245 45.7205 51.6632 45.7205 53.7217 43.6723Z" fill="#70D955"/>
<path fill-rule="evenodd" clip-rule="evenodd" d="M50.0005 45.2085C51.3489 45.2085 52.694 44.6964 53.7215 43.6723L53.8308 43.5631C55.7868 41.508 55.7561 38.2683 53.7318 36.2576L49.9971 32.5435L46.2625 36.2576C44.2381 38.2683 44.2108 41.508 46.1635 43.5631L46.2727 43.6723C47.3002 44.693 48.6487 45.2051 49.9937 45.2085H50.0005Z" fill="#52C41A"/>
<path d="M34.9663 51.2179C33.5505 51.2179 32.8425 51.7512 32.8425 52.8178C32.8425 53.4125 33.003 53.823 33.3239 54.0496C33.6543 54.2667 34.315 54.4885 35.3061 54.715C36.3066 54.9321 37.0146 55.22 37.4299 55.5787C37.8452 55.9279 38.0528 56.5084 38.0528 57.3202C38.0528 59.3307 37.0098 60.3359 34.9238 60.3359C34.2348 60.3359 33.3711 60.2557 32.3328 60.0952L31.8231 60.0244L31.9364 59.1183C33.2201 59.2882 34.197 59.3731 34.8672 59.3731C36.2642 59.3731 36.9626 58.7171 36.9626 57.4051C36.9626 56.8765 36.8069 56.499 36.4954 56.2725C36.1934 56.0365 35.6223 55.8383 34.7822 55.6778C33.6779 55.4418 32.8945 55.1398 32.4319 54.7717C31.9694 54.3941 31.7382 53.7664 31.7382 52.8886C31.7382 51.1329 32.7906 50.2551 34.8955 50.2551C35.5846 50.2551 36.4105 50.3259 37.3732 50.4675L37.8546 50.5383L37.7555 51.4586C36.4435 51.2981 35.5138 51.2179 34.9663 51.2179ZM39.4242 60.2085V53.1293H40.4861V60.2085H39.4242ZM39.4242 51.5294V50.2976H40.4861V51.5294H39.4242ZM44.9263 63.5357C43.7937 63.5357 43.0008 63.38 42.5477 63.0685C42.1041 62.7665 41.8823 62.2096 41.8823 61.3978C41.8823 61.0108 41.9672 60.6946 42.1371 60.4492C42.307 60.2132 42.5949 59.9442 43.0008 59.6422C42.7365 59.4628 42.6044 59.1372 42.6044 58.6652C42.6044 58.5048 42.7224 58.2074 42.9583 57.7732L43.0858 57.5467C42.3401 57.2069 41.9672 56.4943 41.9672 55.4088C41.9672 53.7947 42.8498 52.9877 44.6149 52.9877C45.0679 52.9877 45.488 53.0349 45.875 53.1293L46.0873 53.1718L48.1828 53.1151V54.0213L46.8377 53.9929C47.1492 54.3044 47.305 54.7764 47.305 55.4088C47.305 56.2961 47.0831 56.919 46.6395 57.2777C46.2053 57.6269 45.5163 57.8016 44.5724 57.8016C44.3175 57.8016 44.0863 57.7827 43.8786 57.7449C43.7087 58.1602 43.6238 58.4293 43.6238 58.552C43.6238 58.8446 43.7134 59.0286 43.8928 59.1041C44.0721 59.1702 44.6149 59.2032 45.521 59.2032C46.4271 59.2032 47.0784 59.3448 47.4749 59.628C47.8713 59.9112 48.0695 60.4633 48.0695 61.2845C48.0695 62.7853 47.0218 63.5357 44.9263 63.5357ZM42.93 61.3129C42.93 61.8131 43.0669 62.1576 43.3406 62.3464C43.6238 62.5446 44.1382 62.6437 44.8839 62.6437C45.639 62.6437 46.177 62.5399 46.4979 62.3323C46.8283 62.1246 46.9935 61.7754 46.9935 61.2845C46.9935 60.8031 46.8755 60.4917 46.6395 60.3501C46.4035 60.2085 45.941 60.1377 45.252 60.1377L43.7229 60.0669C43.4114 60.2934 43.199 60.4917 43.0858 60.6616C42.9819 60.8315 42.93 61.0486 42.93 61.3129ZM43.0291 55.4088C43.0291 55.9657 43.1518 56.3621 43.3972 56.5981C43.6521 56.8341 44.0674 56.9521 44.6432 56.9521C45.219 56.9521 45.6295 56.8341 45.875 56.5981C46.1204 56.3621 46.2431 55.9657 46.2431 55.4088C46.2431 54.8425 46.1204 54.4413 45.875 54.2053C45.6295 53.9694 45.219 53.8514 44.6432 53.8514C44.0674 53.8514 43.6521 53.9741 43.3972 54.2195C43.1518 54.4555 43.0291 54.8519 43.0291 55.4088ZM50.2009 60.2085H49.139V53.1293H50.1867V53.6248C50.9513 53.2001 51.6828 52.9877 52.3813 52.9877C53.3252 52.9877 53.9576 53.2426 54.2785 53.7523C54.6089 54.262 54.774 55.1681 54.774 56.4707V60.2085H53.7263V56.499C53.7263 55.5173 53.6272 54.8472 53.429 54.4885C53.2402 54.1204 52.8296 53.9363 52.1972 53.9363C51.8952 53.9363 51.5742 53.9835 51.2344 54.0779C50.9041 54.1628 50.6492 54.2478 50.4699 54.3327L50.2009 54.4602V60.2085ZM59.3835 60.2085V50.4109H60.4737V60.2085H59.3835ZM63.4181 60.2085H62.3562V53.1293H63.4039V53.6248C64.1685 53.2001 64.9 52.9877 65.5985 52.9877C66.5424 52.9877 67.1748 53.2426 67.4957 53.7523C67.8261 54.262 67.9913 55.1681 67.9913 56.4707V60.2085H66.9435V56.499C66.9435 55.5173 66.8444 54.8472 66.6462 54.4885C66.4574 54.1204 66.0468 53.9363 65.4144 53.9363C65.1124 53.9363 64.7915 53.9835 64.4517 54.0779C64.1213 54.1628 63.8664 54.2478 63.6871 54.3327L63.4181 54.4602V60.2085ZM22.9515 66.2179C21.5357 66.2179 20.8277 66.7512 20.8277 67.8178C20.8277 68.4125 20.9882 68.823 21.3091 69.0496C21.6395 69.2667 22.3002 69.4885 23.2913 69.715C24.2918 69.9321 24.9998 70.22 25.4151 70.5787C25.8304 70.9279 26.038 71.5084 26.038 72.3202C26.038 74.3307 24.995 75.3359 22.909 75.3359C22.22 75.3359 21.3563 75.2557 20.318 75.0952L19.8083 75.0244L19.9216 74.1183C21.2053 74.2882 22.1822 74.3731 22.8524 74.3731C24.2494 74.3731 24.9478 73.7171 24.9478 72.4051C24.9478 71.8765 24.7921 71.499 24.4806 71.2725C24.1786 71.0365 23.6075 70.8383 22.7674 70.6778C21.6631 70.4418 20.8797 70.1398 20.4171 69.7717C19.9546 69.3941 19.7234 68.7664 19.7234 67.8886C19.7234 66.1329 20.7758 65.2551 22.8807 65.2551C23.5698 65.2551 24.3957 65.3259 25.3584 65.4675L25.8398 65.5383L25.7407 66.4586C24.4287 66.2981 23.499 66.2179 22.9515 66.2179ZM30.057 67.9877C30.3685 67.9877 30.8971 68.0443 31.6427 68.1576L31.9825 68.2001L31.9401 69.0637C31.185 68.9788 30.6281 68.9363 30.2694 68.9363C29.4671 68.9363 28.9196 69.1298 28.627 69.5168C28.3438 69.8944 28.2022 70.6023 28.2022 71.6406C28.2022 72.6694 28.3344 73.3868 28.5987 73.7927C28.8724 74.1985 29.434 74.4015 30.2835 74.4015L31.9542 74.274L31.9967 75.1519C31.1189 75.284 30.4629 75.3501 30.0287 75.3501C28.9243 75.3501 28.1598 75.0669 27.735 74.5006C27.3197 73.9342 27.112 72.9809 27.112 71.6406C27.112 70.2908 27.3386 69.3469 27.7917 68.8089C28.2447 68.2614 28.9998 67.9877 30.057 67.9877ZM34.3104 75.2085H33.2485V65.0427H34.3104V68.5257C35.0655 68.167 35.7923 67.9877 36.4907 67.9877C37.4346 67.9877 38.0671 68.2426 38.388 68.7523C38.7183 69.262 38.8835 70.1681 38.8835 71.4707V75.2085H37.8216V71.499C37.8216 70.5173 37.7225 69.8472 37.5243 69.4885C37.3355 69.1204 36.9297 68.9363 36.3067 68.9363C35.712 68.9363 35.1363 69.0449 34.5794 69.262L34.3104 69.3611V75.2085ZM45.3394 74.3307L45.75 74.2882L45.7783 75.1235C44.7023 75.2746 43.782 75.3501 43.0174 75.3501C41.998 75.3501 41.2759 75.0575 40.8512 74.4723C40.4264 73.8776 40.214 72.9573 40.214 71.7114C40.214 69.2289 41.2004 67.9877 43.1732 67.9877C44.1265 67.9877 44.8391 68.2567 45.3111 68.7947C45.783 69.3233 46.019 70.1587 46.019 71.3008L45.9624 72.1078H41.2901C41.2901 72.8912 41.4317 73.4717 41.7148 73.8493C41.998 74.2268 42.4888 74.4156 43.1873 74.4156C43.8952 74.4156 44.6126 74.3873 45.3394 74.3307ZM44.9571 71.2583C44.9571 70.3899 44.8155 69.7764 44.5324 69.4177C44.2586 69.059 43.8056 68.8797 43.1732 68.8797C42.5502 68.8797 42.0782 69.0685 41.7573 69.446C41.4458 69.8236 41.2854 70.4277 41.2759 71.2583H44.9571ZM52.7831 65.0427V75.2085H51.7354V74.7271C51.0086 75.1424 50.2913 75.3501 49.5833 75.3501C49.2058 75.3501 48.8754 75.3029 48.5923 75.2085C48.3091 75.1141 48.0448 74.9442 47.7994 74.6988C47.2897 74.1891 47.0348 73.2499 47.0348 71.8813C47.0348 70.5032 47.2614 69.5121 47.7144 68.908C48.1769 68.2945 48.9368 67.9877 49.9939 67.9877C50.5414 67.9877 51.1219 68.0491 51.7354 68.1718V65.0427H52.7831ZM48.6206 73.9342C48.7716 74.1136 48.9321 74.2363 49.102 74.3024C49.2719 74.3684 49.489 74.4015 49.7532 74.4015C50.027 74.4015 50.329 74.359 50.6594 74.274C50.9992 74.1797 51.2635 74.09 51.4523 74.005L51.7354 73.8776V69.0779C51.1313 68.9646 50.5697 68.908 50.0506 68.908C49.3332 68.908 48.8329 69.1393 48.5498 69.6018C48.2666 70.0548 48.125 70.7628 48.125 71.7255C48.125 72.8204 48.2902 73.5567 48.6206 73.9342ZM58.9302 68.1293H59.9921V75.2085H58.9302V74.713C58.2223 75.1377 57.5238 75.3501 56.8347 75.3501C55.872 75.3501 55.2301 75.0999 54.9092 74.5997C54.5977 74.0994 54.442 73.1744 54.442 71.8246V68.1293H55.5038V71.8105C55.5038 72.8393 55.5935 73.5284 55.7729 73.8776C55.9522 74.2268 56.3581 74.4015 56.9905 74.4015C57.302 74.4015 57.6182 74.359 57.9391 74.274C58.26 74.1797 58.5054 74.09 58.6753 74.005L58.9302 73.8776V68.1293ZM61.7918 75.2085V65.0427H62.8537V75.2085H61.7918ZM64.6562 75.2085V68.1293H65.7181V75.2085H64.6562ZM64.6562 66.5294V65.2976H65.7181V66.5294H64.6562ZM68.4877 75.2085H67.4258V68.1293H68.4735V68.6248C69.2381 68.2001 69.9696 67.9877 70.6681 67.9877C71.612 67.9877 72.2444 68.2426 72.5653 68.7523C72.8957 69.262 73.0608 70.1681 73.0608 71.4707V75.2085H72.0131V71.499C72.0131 70.5173 71.914 69.8472 71.7158 69.4885C71.527 69.1204 71.1164 68.9363 70.484 68.9363C70.182 68.9363 69.861 68.9835 69.5212 69.0779C69.1909 69.1628 68.936 69.2478 68.7567 69.3327L68.4877 69.4602V75.2085ZM77.4354 78.5357C76.3027 78.5357 75.5099 78.38 75.0568 78.0685C74.6132 77.7665 74.3914 77.2096 74.3914 76.3978C74.3914 76.0108 74.4763 75.6946 74.6462 75.4492C74.8161 75.2132 75.104 74.9442 75.5099 74.6422C75.2456 74.4628 75.1134 74.1372 75.1134 73.6652C75.1134 73.5048 75.2314 73.2074 75.4674 72.7732L75.5948 72.5467C74.8491 72.2069 74.4763 71.4943 74.4763 70.4088C74.4763 68.7947 75.3589 67.9877 77.1239 67.9877C77.577 67.9877 77.997 68.0349 78.384 68.1293L78.5964 68.1718L80.6919 68.1151V69.0213L79.3468 68.9929C79.6583 69.3044 79.814 69.7764 79.814 70.4088C79.814 71.2961 79.5922 71.919 79.1486 72.2777C78.7144 72.6269 78.0254 72.8016 77.0815 72.8016C76.8266 72.8016 76.5954 72.7827 76.3877 72.7449C76.2178 73.1602 76.1328 73.4293 76.1328 73.552C76.1328 73.8446 76.2225 74.0286 76.4019 74.1041C76.5812 74.1702 77.1239 74.2032 78.0301 74.2032C78.9362 74.2032 79.5875 74.3448 79.9839 74.628C80.3804 74.9112 80.5786 75.4633 80.5786 76.2845C80.5786 77.7853 79.5309 78.5357 77.4354 78.5357ZM75.4391 76.3129C75.4391 76.8131 75.5759 77.1576 75.8497 77.3464C76.1328 77.5446 76.6473 77.6437 77.3929 77.6437C78.1481 77.6437 78.6861 77.5399 79.007 77.3323C79.3374 77.1246 79.5025 76.7754 79.5025 76.2845C79.5025 75.8031 79.3846 75.4917 79.1486 75.3501C78.9126 75.2085 78.4501 75.1377 77.7611 75.1377L76.232 75.0669C75.9205 75.2934 75.7081 75.4917 75.5948 75.6616C75.491 75.8315 75.4391 76.0486 75.4391 76.3129ZM75.5382 70.4088C75.5382 70.9657 75.6609 71.3621 75.9063 71.5981C76.1612 71.8341 76.5765 71.9521 77.1523 71.9521C77.728 71.9521 78.1386 71.8341 78.384 71.5981C78.6294 71.3621 78.7522 70.9657 78.7522 70.4088C78.7522 69.8425 78.6294 69.4413 78.384 69.2053C78.1386 68.9694 77.728 68.8514 77.1523 68.8514C76.5765 68.8514 76.1612 68.9741 75.9063 69.2195C75.6609 69.4555 75.5382 69.8519 75.5382 70.4088Z" fill="black"/>
<path d="M30.12 84.1V87H29.62V84.1H29.2V83.6667H29.62V83.3667C29.62 82.8956 29.6867 82.5756 29.82 82.4067C29.9533 82.2333 30.1867 82.1467 30.52 82.1467L31.1933 82.1933L31.1867 82.6067C30.9378 82.5978 30.7311 82.5933 30.5667 82.5933C30.4067 82.5933 30.2911 82.6467 30.22 82.7533C30.1533 82.86 30.12 83.0667 30.12 83.3733V83.6667H31.0867V84.1H30.12ZM31.4818 85.3267C31.4818 84.7178 31.5907 84.2778 31.8084 84.0067C32.0262 83.7356 32.3929 83.6 32.9084 83.6C33.4284 83.6 33.7951 83.7356 34.0084 84.0067C34.2262 84.2778 34.3351 84.7178 34.3351 85.3267C34.3351 85.9356 34.2329 86.3778 34.0284 86.6533C33.824 86.9289 33.4507 87.0667 32.9084 87.0667C32.3662 87.0667 31.9929 86.9289 31.7884 86.6533C31.584 86.3778 31.4818 85.9356 31.4818 85.3267ZM31.9951 85.32C31.9951 85.8044 32.0529 86.1444 32.1684 86.34C32.2884 86.5356 32.5351 86.6333 32.9084 86.6333C33.2862 86.6333 33.5329 86.5378 33.6484 86.3467C33.764 86.1511 33.8218 85.8089 33.8218 85.32C33.8218 84.8311 33.7573 84.4956 33.6284 84.3133C33.4995 84.1267 33.2595 84.0333 32.9084 84.0333C32.5618 84.0333 32.3218 84.1267 32.1884 84.3133C32.0595 84.4956 31.9951 84.8311 31.9951 85.32ZM35.1506 87V83.6667H35.6439V84.12C36.0306 83.8533 36.4372 83.6778 36.8639 83.5933V84.1C36.6772 84.1356 36.4817 84.1911 36.2772 84.2667C36.0772 84.3422 35.9239 84.4089 35.8172 84.4667L35.6506 84.5533V87H35.1506ZM37.9553 87H37.4553V83.6667H37.9486V83.9C38.2819 83.7 38.6064 83.6 38.9219 83.6C39.3353 83.6 39.6242 83.7133 39.7886 83.94C39.9353 83.8511 40.1242 83.7733 40.3553 83.7067C40.5908 83.6356 40.7975 83.6 40.9753 83.6C41.4197 83.6 41.7175 83.72 41.8686 83.96C42.0242 84.1956 42.1019 84.6222 42.1019 85.24V87H41.6019V85.2533C41.6019 84.7911 41.5575 84.4756 41.4686 84.3067C41.3797 84.1333 41.1908 84.0467 40.9019 84.0467C40.7553 84.0467 40.6042 84.0689 40.4486 84.1133C40.293 84.1533 40.173 84.1933 40.0886 84.2333L39.9619 84.2933C40.0197 84.44 40.0486 84.7644 40.0486 85.2667V87H39.5486V85.28C39.5486 84.8 39.5042 84.4756 39.4153 84.3067C39.3308 84.1333 39.1419 84.0467 38.8486 84.0467C38.7064 84.0467 38.5597 84.0689 38.4086 84.1133C38.2619 84.1533 38.1486 84.1933 38.0686 84.2333L37.9553 84.2933V87ZM45.2948 86.5867L45.4882 86.5667L45.5015 86.96C44.9948 87.0311 44.5615 87.0667 44.2015 87.0667C43.7215 87.0667 43.3815 86.9289 43.1815 86.6533C42.9815 86.3733 42.8815 85.94 42.8815 85.3533C42.8815 84.1844 43.346 83.6 44.2748 83.6C44.7237 83.6 45.0593 83.7267 45.2815 83.98C45.5037 84.2289 45.6148 84.6222 45.6148 85.16L45.5882 85.54H43.3882C43.3882 85.9089 43.4548 86.1822 43.5882 86.36C43.7215 86.5378 43.9526 86.6267 44.2815 86.6267C44.6148 86.6267 44.9526 86.6133 45.2948 86.5867ZM45.1148 85.14C45.1148 84.7311 45.0482 84.4422 44.9148 84.2733C44.786 84.1044 44.5726 84.02 44.2748 84.02C43.9815 84.02 43.7593 84.1089 43.6082 84.2867C43.4615 84.4644 43.386 84.7489 43.3815 85.14H45.1148ZM46.3941 87V83.6667H46.8874V84.12C47.2741 83.8533 47.6807 83.6778 48.1074 83.5933V84.1C47.9207 84.1356 47.7252 84.1911 47.5207 84.2667C47.3207 84.3422 47.1674 84.4089 47.0607 84.4667L46.8941 84.5533V87H46.3941ZM48.7388 87V82.2133H49.2388V87H48.7388ZM49.9284 83.6667H50.4284L51.2617 86.5667H51.4817L52.3217 83.6667H52.8217L51.4351 88.48H50.9351L51.3684 87H50.8751L49.9284 83.6667ZM57.0426 82.6V87H56.5292V83.1733L55.3959 83.92L55.1626 83.5333L56.5626 82.6H57.0426ZM60.0397 82.5267C60.4041 82.5267 60.6997 82.5956 60.9264 82.7333C61.4064 83.0178 61.6464 83.7289 61.6464 84.8667C61.6464 85.6711 61.513 86.24 61.2464 86.5733C60.9797 86.9022 60.5797 87.0667 60.0464 87.0667C59.513 87.0667 59.1108 86.9044 58.8397 86.58C58.573 86.2511 58.4397 85.6689 58.4397 84.8333C58.4397 83.9933 58.5708 83.4 58.833 83.0533C59.0997 82.7022 59.5019 82.5267 60.0397 82.5267ZM60.0464 82.9867C59.793 82.9867 59.593 83.04 59.4464 83.1467C59.1308 83.3644 58.973 83.94 58.973 84.8733C58.973 85.5311 59.0597 85.9867 59.233 86.24C59.4064 86.4889 59.6775 86.6133 60.0464 86.6133C60.4152 86.6133 60.6864 86.4867 60.8597 86.2333C61.033 85.98 61.1197 85.5111 61.1197 84.8267C61.1197 84.1378 61.0352 83.66 60.8664 83.3933C60.7019 83.1222 60.4286 82.9867 60.0464 82.9867ZM64.1168 84.1H63.0568V85.6933C63.0568 86.0756 63.0835 86.3267 63.1368 86.4467C63.1946 86.5667 63.3279 86.6267 63.5368 86.6267L64.1302 86.5867L64.1635 87C63.8657 87.0489 63.639 87.0733 63.4835 87.0733C63.1368 87.0733 62.8968 86.9889 62.7635 86.82C62.6302 86.6511 62.5635 86.3289 62.5635 85.8533V84.1H62.0902V83.6667H62.5635V82.6467H63.0568V83.6667H64.1168V84.1ZM64.5807 85.3267C64.5807 84.7178 64.6896 84.2778 64.9074 84.0067C65.1252 83.7356 65.4918 83.6 66.0074 83.6C66.5274 83.6 66.8941 83.7356 67.1074 84.0067C67.3252 84.2778 67.4341 84.7178 67.4341 85.3267C67.4341 85.9356 67.3318 86.3778 67.1274 86.6533C66.923 86.9289 66.5496 87.0667 66.0074 87.0667C65.4652 87.0667 65.0918 86.9289 64.8874 86.6533C64.683 86.3778 64.5807 85.9356 64.5807 85.3267ZM65.0941 85.32C65.0941 85.8044 65.1518 86.1444 65.2674 86.34C65.3874 86.5356 65.6341 86.6333 66.0074 86.6333C66.3852 86.6333 66.6318 86.5378 66.7474 86.3467C66.863 86.1511 66.9207 85.8089 66.9207 85.32C66.9207 84.8311 66.8563 84.4956 66.7274 84.3133C66.5985 84.1267 66.3585 84.0333 66.0074 84.0333C65.6607 84.0333 65.4207 84.1267 65.2874 84.3133C65.1585 84.4956 65.0941 84.8311 65.0941 85.32ZM68.4695 82.82C68.7495 82.6244 69.134 82.5267 69.6229 82.5267C70.1118 82.5267 70.4984 82.6244 70.7829 82.82C71.0718 83.0111 71.2162 83.2956 71.2162 83.6733C71.2162 83.9489 71.1606 84.16 71.0495 84.3067C70.9384 84.4489 70.7495 84.58 70.4829 84.7C70.7495 84.82 70.9495 84.9622 71.0829 85.1267C71.2162 85.2867 71.2829 85.5133 71.2829 85.8067C71.2829 86.6467 70.7318 87.0667 69.6295 87.0667C68.5318 87.0667 67.9829 86.6711 67.9829 85.88C67.9829 85.5644 68.0429 85.3244 68.1629 85.16C68.2873 84.9956 68.4806 84.8422 68.7429 84.7C68.5029 84.58 68.3273 84.4444 68.2162 84.2933C68.1095 84.1378 68.0562 83.9289 68.0562 83.6667C68.0562 83.2933 68.194 83.0111 68.4695 82.82ZM68.5295 85.7933C68.5295 86.3311 68.8962 86.6 69.6295 86.6C70.3673 86.6 70.7362 86.3178 70.7362 85.7533C70.7362 85.5178 70.6695 85.3444 70.5362 85.2333C70.4073 85.1178 70.214 85.0222 69.9562 84.9467H69.2562C69.0118 85.0133 68.8295 85.1133 68.7095 85.2467C68.5895 85.3756 68.5295 85.5578 68.5295 85.7933ZM70.6695 83.7333C70.6695 83.24 70.3251 82.9933 69.6362 82.9933C68.9473 82.9933 68.6029 83.2378 68.6029 83.7267C68.6029 83.9222 68.6562 84.08 68.7629 84.2C68.8695 84.32 69.034 84.42 69.2562 84.5H69.9562C70.1962 84.4244 70.374 84.3267 70.4895 84.2067C70.6095 84.0867 70.6695 83.9289 70.6695 83.7333Z" fill="black"/>
<rect x="0.5" y="0.5" width="99" height="99" rx="3.5" stroke="#C4C4C4"/>
</svg>
